<svg width="29" height="28" viewBox="0 0 29 28" fill="none" xmlns="http://www.w3.org/2000/svg">
<path d="M7.5 7.00033H21.5" stroke="#B1B1B1" stroke-width="1.5" stroke-linecap="round" stroke-linejoin="round"/>
<path d="M9.83203 3.50033H19.1654" stroke="#B1B1B1" stroke-width="1.5" stroke-linecap="round" stroke-linejoin="round"/>
<path fill-rule="evenodd" clip-rule="evenodd" d="M13.6349 15.2494L16.8048 17.1242C17.2061 17.361 17.2061 17.942 16.8048 18.1789L13.6349 20.0537C13.2266 20.2952 12.7109 20.0012 12.7109 19.5264V15.7779C12.7098 15.3019 13.2266 15.0079 13.6349 15.2494V15.2494Z" stroke="#B1B1B1" stroke-width="1.5" stroke-linecap="round" stroke-linejoin="round"/>
<path fill-rule="evenodd" clip-rule="evenodd" d="M22.6667 24.5H6.33333C5.04417 24.5 4 23.4558 4 22.1667V12.8333C4 11.5442 5.04417 10.5 6.33333 10.5H22.6667C23.9558 10.5 25 11.5442 25 12.8333V22.1667C25 23.4558 23.9558 24.5 22.6667 24.5Z" stroke="#B1B1B1" stroke-width="1.5" stroke-linecap="round" stroke-linejoin="round"/>
</svg>
